<svg id="Logo" xmlns="http://www.w3.org/2000/svg" viewBox="0 0 34 254"><defs><style>.cls-1{fill:none;stroke:#ccc;stroke-miterlimit:10;}.cls-2{fill:#ccc;}.cls-3{fill:#f0f;}</style></defs><title>Zeichenfläche 8</title><line class="cls-1" x1="17.5" y1="18.08" x2="17.5" y2="235.92"/><polygon class="cls-2" points="13.41 21.4 14.14 22.08 17.5 18.47 20.86 22.08 21.59 21.4 17.5 17 13.41 21.4"/><polygon class="cls-2" points="13.41 232.6 14.14 231.92 17.5 235.53 20.86 231.92 21.59 232.6 17.5 237 13.41 232.6"/><path class="cls-3" d="M4.73,12.06V4.9H6.18V7.72H9V4.9h1.45v7.16H9V8.93H6.18v3.13Z"/><path class="cls-3" d="M12.41,12.06V4.9h1.44v7.16Z"/><path class="cls-3" d="M19.06,9.43V8.22h3.11v2.85a4.08,4.08,0,0,1-1.31.78,4.89,4.89,0,0,1-1.75.33,4,4,0,0,1-2-.47,3,3,0,0,1-1.25-1.35,4.35,4.35,0,0,1-.42-1.91,4,4,0,0,1,.47-2,3.17,3.17,0,0,1,1.37-1.34A3.8,3.8,0,0,1,19,4.78a3.39,3.39,0,0,1,2.09.56,2.48,2.48,0,0,1,1,1.54l-1.44.27a1.53,1.53,0,0,0-.56-.83A1.7,1.7,0,0,0,19,6a1.94,1.94,0,0,0-1.5.6A2.51,2.51,0,0,0,17,8.4a2.85,2.85,0,0,0,.56,1.91,1.92,1.92,0,0,0,1.49.63,2.71,2.71,0,0,0,.91-.17,3.06,3.06,0,0,0,.78-.44v-.9Z"/><path class="cls-3" d="M24,12.06V4.9h1.45V7.72h2.83V4.9h1.44v7.16H28.29V8.93H25.46v3.13Z"/><path class="cls-3" d="M5.85,250.06V243H7.3v5.89h3.59v1.21Z"/><path class="cls-3" d="M12.13,246.52a4.47,4.47,0,0,1,.33-1.83,3.13,3.13,0,0,1,.66-1,2.86,2.86,0,0,1,.93-.65,3.92,3.92,0,0,1,1.54-.28,3.32,3.32,0,0,1,2.53,1,4.39,4.39,0,0,1,0,5.44,3.35,3.35,0,0,1-2.52,1,3.38,3.38,0,0,1-2.54-1A3.71,3.71,0,0,1,12.13,246.52Zm1.49-.05a2.73,2.73,0,0,0,.56,1.85,1.95,1.95,0,0,0,2.85,0,2.78,2.78,0,0,0,.55-1.87,2.67,2.67,0,0,0-.54-1.83,1.81,1.81,0,0,0-1.43-.61,1.85,1.85,0,0,0-1.44.61A2.69,2.69,0,0,0,13.62,246.47Z"/><path class="cls-3" d="M21.72,250.06,20,242.9h1.48l1.08,4.92,1.31-4.92h1.71l1.26,5,1.1-5H29.4l-1.74,7.16H26.13l-1.42-5.35-1.43,5.35Z"/></svg>